<svg xmlns="http://www.w3.org/2000/svg" xmlns:xlink="http://www.w3.org/1999/xlink" viewBox="0 0 45 45"><circle cx="22.5" cy="22.5" r="22" fill="#252f3f"/><g><path fill="#fff" fill-rule="evenodd" d="M27.2 26.3c.1-.3.3-.6.4-1 .6-1.8 1.2-3.7 1.8-5.5.2-.7.5-1.4.9-2 .7-1 1.7-1.5 2.8-1.6.5-.1.9-.1 1.4-.1h4.3c0 .1-.1.1-.1.2L37.2 19c-.9 1.6-1.8 3.1-2.8 4.7-.6 1-1.3 1.9-2 2.8-.5.7-1.1 1.3-1.8 1.8-.5.3-1 .5-1.6.5h-6.4c-.6 0-1.2-.2-1.6-.7-.7-.6-1.1-1.4-1.4-2.2-.6-1.5-.9-3.1-1.3-4.7-.2-.7-.4-1.5-.6-2.2 0 0 0-.1-.1-.2l-.1.1c-.8.8-2.8 4-3.6 7.1-.4 1.1-1.1 2-2.1 2.5-.6.3-1.3.5-2 .5H6.7c-.2 0-.3 0-.2-.3.4-1.6 1-3.2 1.7-4.8.7-1.6 1.6-3.1 2.6-4.5.7-.9 1.5-1.8 2.5-2.5.5-.3 1.1-.6 1.7-.7H21.9c1.2 0 2 .5 2.7 1.4.4.6.7 1.2.9 1.9.5 1.3.8 2.7 1.1 4.1l.6 2.4c-.1.2-.1.2 0 .3z" clip-rule="evenodd"/></g></svg>